<svg
        xmlns="http://www.w3.org/2000/svg"
        width="498.3414"
        height="377.77414"
        version="1.1"
        id="svg46"
    >
        <path
            d="m 238.90164,206.12513 c 0,-48.07868 38.62924,-87.02241 86.31967,-87.02241 47.69043,0 86.31967,38.94373 86.31967,87.02241 0,48.07868 -38.62924,87.02242 -86.31967,87.02242 -47.69043,0 -86.31967,-38.94374 -86.31967,-87.02242 z"
            id="svg_1"
            style={{
                opacity: 1,
                fill: '#ebeb1a',
                fillOpacity: 1,
                fillRule: 'nonzero',
                stroke: '#ebeb1a',
                strokeWidth: 2,
                strokeLinecap: 'butt',
                strokeLinejoin: 'round',
                strokeDasharray: 'none',
                strokeOpacity: 1,
                filter: 'url(#f049)',
            }}
        />
        <path
            d="m 448.88368,218.838 c -0.52761,0.0126 -1.03748,0.0461 -1.56727,0.0858 -8.47659,0.6362 -15.95809,4.68972 -19.75878,10.72974 l -2.01507,4.57087 c 0.43473,-1.58402 1.10226,-3.12025 2.01507,-4.57087 -6.77803,-5.29162 -16.29168,-7.73403 -25.69202,-6.58806 -9.40036,1.14596 -17.56415,5.74179 -22.02572,12.40359 -12.59511,-5.84524 -28.29517,-5.49122 -40.44114,0.92276 -12.14598,6.41397 -18.61977,17.77043 -16.65224,29.22782 l 1.2874,4.65671 c -0.58176,-1.52559 -1.01622,-3.07759 -1.2874,-4.65671 l -0.19591,0.42919 c -10.55802,0.86699 -19.2169,7.03968 -21.46598,15.30062 -2.24909,8.26093 2.42759,16.73722 11.58659,21.00883 l 14.30133,2.61807 c -4.99365,0.30973 -9.97917,-0.60227 -14.30133,-2.61807 -7.06466,5.96302 -8.69034,14.79113 -4.03012,22.08183 4.66021,7.29068 14.61275,11.48869 24.88039,10.5366 l 6.24109,-1.24465 c -2.00809,0.63334 -4.09363,1.04552 -6.24109,1.24465 5.82887,8.08552 15.49388,13.98364 26.83948,16.33066 11.3456,2.34703 23.39655,0.95991 33.4444,-3.84124 8.19704,9.74057 22.74563,14.85668  37.33459,13.1332 14.58895,-1.72349 26.62341,-9.9881 30.89759,-21.20197 l 1.4833,-6.26617 c -0.2221,2.12881 -0.70405,4.22172 -1.4833,6.26617 10.03447,4.95848 22.65669,5.23791 33.02459,0.72963 10.36791,-4.50829 16.8372,-13.10503 16.93211,-22.46808 l -3.71697,-13.98974 -14.64247,-9.46548 c 11.32231,5.34428 18.46046,13.48681 18.35944,23.45522 13.46281,0.10631 24.8985,-8.58623 30.02999,-18.56245 5.13149,-9.97624 3.19034,-21.3497 -5.09364,-29.89307 3.43605,-6.3609 3.23219,-13.59638 -0.55972,-19.82856 -3.79194,-6.23219 -10.78644,-10.86425 -19.19906,-12.68256 -1.88264,-8.26 -9.64288,-14.90427 -19.89872,-17.08175 -10.25583,-2.17748 -21.17643,0.50754 -28.04291,6.90995 l -4.17006,5.3005 c 1.06555,-1.91679 2.45719,-3.70342 4.17006,-5.3005 -4.84036,-5.03182 -12.43226,-7.8711 -20.34652,-7.6825 z"
            style={{
                color: '#000000',
                fill: '#ffffff',
                fillRule: 'nonzero',
                stroke: '#b6b6b6',
                strokeWidth: 2,
                strokeLinejoin: 'round',
                strokeOpacity: 1,
                filter: 'url(#f049)',
            }}
        />
        <path
            d="m 276.49892,178.60918 c -0.52887,0.0147 -1.03995,0.0539 -1.57099,0.1004 -8.4967,0.74409 -15.99596,5.48506 -19.80567,12.54941 l -2.01985,5.34604 c 0.43576,-1.85266 1.10487,-3.64942 2.01985,-5.34604 -6.79411,-6.18903 -16.33033,-9.04565 -25.75299,-7.70533 -9.42266,1.3403 -17.60583,6.71553 -22.07799,14.50711 -12.62499,-6.83653 -28.3623,-6.42247 -40.5371,1.07925 -12.1748,7.50172 -18.66395,20.78412 -16.69175,34.18458 l 1.29046,5.44644 c -0.58315,-1.78431 -1.01864,-3.59952 -1.29046,-5.44644 l -0.19637,0.50197 c -10.58308,1.01403 -19.26251,8.23355 -21.51693,17.89546 -2.25442,9.66191 2.43336,19.5757 11.61409,24.57174 l 14.33526,3.06206 c -5.0055,0.36225 -10.00284,-0.70441 -14.33526,-3.06206 -7.08142,6.97428 -8.71096,17.29955 -4.03968,25.82668 4.67127,8.52712 14.64742,13.43707 24.93943,12.32351 l 6.2559,-1.45573 c -2.01286,0.74075 -4.10335, 1.22283 -6.2559,1.45573 5.84269,9.45675 15.53064,16.35513 26.90317,19.10019 11.37252,2.74506 23.45206,1.1227 33.52376,-4.49268 8.21649,11.39247 22.7996,17.37623 37.42318,15.36046 14.62357,-2.01578 26.68659,-11.68199 30.97091,-24.79761 l 1.48682,-7.32886 c -0.22263,2.48984 -0.70572,4.93769 -1.48682,7.32886 10.05829,5.79939 22.71045,6.1262 33.10296,0.85335 10.39251,-5.27284 16.87715,-15.32751 16.97228,-26.27844 l -3.72578,-16.36226 -14.67722,-11.07074 c 11.34918,6.25062 18.50426,15.77404 18.403,27.433 13.49477,0.12434 24.9576,-10.04237 30.10126,-21.71047 5.14366,-11.66811 3.19791,-24.9704 -5.10573,-34.96264 3.4442,-7.43964 3.23986,-15.90219 -0.56105,-23.1913 -3.80093,-7.2891 -10.81203,-12.70672 -19.24462,-14.8334 -1.8871,-9.66081 -9.66576,-17.43189 -19.94593,-19.97865 -10.28017,-2.54676 -21.22669,0.59362 -28.10946,8.08182 l -4.17995,6.19941 c 1.06807,-2.24185 2.46301,-4.33148 4.17995,-6.19941 -4.85184,-5.88516 -12.46176,-9.20597 -20.3948,-8.98538 z"
            style={{
                color: '#000000',
                fill: '#ffffff',
                fillRule: 'nonzero',
                stroke: '#b6b6b6',
                strokeWidth: 2,
                strokeLinejoin: 'round',
                strokeOpacity: 1,
                filter: 'url(#f049)',
            }}
        />
        <path
            d="m 427.72459,210.45901 85.2459,-16.39344"
            id="svg_7"
            style={{
                opacity: 1,
                fill: '#ebeb1a',
                fillOpacity: 1,
                fillRule: 'nonzero',
                stroke: '#ebeb1a',
                strokeWidth: 2,
                strokeLinecap: 'butt',
                strokeLinejoin: 'round',
                strokeDasharray: 'none',
                strokeOpacity: 1,
                filter: 'url(#f049)',
            }}
        />
        <path
            d="M 303.9541,99.803272 283.46229,39.147536"
            id="svg_17"
            style={{
                opacity: 1,
                fill: '#ebeb1a',
                fillOpacity: 1,
                fillRule: 'nonzero',
                stroke: '#ebeb1a',
                strokeWidth: 2,
                strokeLinecap: 'butt',
                strokeLinejoin: 'round',
                strokeDasharray: 'none',
                strokeOpacity: 1,
                filter: 'url(#f049)',
            }}
        />
        <path
            d="M 273.62623,112.09835 231.82295,63.737699"
            id="svg_19"
            style={{
                opacity: 1,
                fill: '#ebeb1a',
                fillOpacity: 1,
                fillRule: 'nonzero',
                stroke: '#ebeb1a',
                strokeWidth: 2,
                strokeLinecap: 'butt',
                strokeLinejoin: 'round',
                strokeDasharray: 'none',
                strokeOpacity: 1,
                filter: 'url(#f049)',
            }}
        />
        <path
            d=" ```javascript"
            d="M 246.57704,130.95081 193.29836,94.065566"
            id="svg_21"
            style={{
                opacity: 1,
                fill: '#ebeb1a',
                fillOpacity: 1,
                fillRule: 'nonzero',
                stroke: '#ebeb1a',
                strokeWidth: 2,
                strokeLinecap: 'butt',
                strokeLinejoin: 'round',
                strokeDasharray: 'none',
                strokeOpacity: 1,
                filter: 'url(#f049)',
            }}
        />
        <path
            d="M 231.82295,157.99999 165.42951,134.2295"
            id="svg_23"
            style={{
                opacity: 1,
                fill: '#ebeb1a',
                fillOpacity: 1,
                fillRule: 'nonzero',
                stroke: '#ebeb1a',
                strokeWidth: 2,
                strokeLinecap: 'butt',
                strokeLinejoin: 'round',
                strokeDasharray: 'none',
                strokeOpacity: 1,
                filter: 'url(#f049)',
            }}
        />
        <path
            d="m 421.98688,157.99999 72.13115,-10.65574"
            id="svg_25"
            transform="rotate(-8.8579588,458.05246,152.67213)"
            style={{
                opacity: 1,
                fill: '#ebeb1a',
                fillOpacity: 1,
                fillRule: 'nonzero',
                stroke: '#ebeb1a',
                strokeWidth: 2,
                strokeLinecap: 'butt',
                strokeLinejoin: 'round',
                strokeDasharray: 'none',
                strokeOpacity: 1,
                filter: 'url(#f049)',
            }}
        />
        <path
            d="M 405.59344,135.04917 451.49508,92.426223"
            id="svg_27"
            style={{
                opacity: 1,
                fill: '#ebeb1a',
                fillOpacity: 1,
                fillRule: 'nonzero',
                stroke: '#ebeb1a',
                strokeWidth: 2,
                strokeLinecap: 'butt',
                strokeLinejoin: 'round',
                strokeDasharray: 'none',
                strokeOpacity: 1,
                filter: 'url(#f049)',
            }}
        />
        <path
            d="M 375.26557,113.7377 406.41311,57.999994"
            id="svg_29"
            transform="rotate(-1.0416267,390.83932,85.868843)"
            style={{
                opacity: 1,
                fill: '#ebeb1a',
                fillOpacity: 1,
                fillRule: 'nonzero',
                stroke: '#ebeb1a',
                strokeWidth: 2,
                strokeLinecap: 'butt',
                strokeLinejoin: 'round',
                strokeDasharray: 'none',
                strokeOpacity: 1,
                filter: 'url(#f049)',
            }}
        />
        <path
            d="M 334.42052,99.136586 352.17619,34.896187"
            id="svg_31"
            transform="rotate(-7.9893208,343.29834,67.016388)"
            style={{
                opacity: 1,
                fill: '#ebeb1a',
                fillOpacity: 1,
                fillRule: 'nonzero',
                stroke: '#ebeb1a',
                strokeWidth: 2,
                strokeLinecap: 'butt',
                strokeLinejoin: 'round',
                strokeDasharray: 'none',
                strokeOpacity: 1,
                filter: 'url(#f049)',
            }}
        />
    </svg>